G04 #@! TF.GenerationSoftware,KiCad,Pcbnew,5.0.0-rc2-unknown-2d812c2~65~ubuntu16.04.1*
G04 #@! TF.CreationDate,2018-05-23T18:43:55-05:00*
G04 #@! TF.ProjectId,mems_tdk,6D656D735F74646B2E6B696361645F70,1.0*
G04 #@! TF.SameCoordinates,Original*
G04 #@! TF.FileFunction,Copper,L1,Top,Signal*
G04 #@! TF.FilePolarity,Positive*
%FSLAX46Y46*%
G04 Gerber Fmt 4.6, Leading zero omitted, Abs format (unit mm)*
G04 Created by KiCad (PCBNEW 5.0.0-rc2-unknown-2d812c2~65~ubuntu16.04.1) date Wed May 23 18:43:55 2018*
%MOMM*%
%LPD*%
G01*
G04 APERTURE LIST*
G04 #@! TA.AperFunction,EtchedComponent*
%ADD10C,0.001000*%
G04 #@! TD*
G04 #@! TA.AperFunction,SMDPad,CuDef*
%ADD11R,2.000000X1.600000*%
G04 #@! TD*
G04 #@! TA.AperFunction,ComponentPad*
%ADD12R,1.350000X1.350000*%
G04 #@! TD*
G04 #@! TA.AperFunction,SMDPad,CuDef*
%ADD13R,0.600000X0.400000*%
G04 #@! TD*
G04 #@! TA.AperFunction,SMDPad,CuDef*
%ADD14R,0.100000X0.100000*%
G04 #@! TD*
G04 #@! TA.AperFunction,SMDPad,CuDef*
%ADD15R,2.000000X1.700000*%
G04 #@! TD*
G04 #@! TA.AperFunction,Conductor*
%ADD16C,0.400000*%
G04 #@! TD*
G04 #@! TA.AperFunction,Conductor*
%ADD17C,0.254000*%
G04 #@! TD*
G04 APERTURE END LIST*
D10*
G04 #@! TO.C,MK1*
G36*
X157904484Y-100947382D02*
X157904484Y-101247382D01*
X157894484Y-101247382D01*
X157881394Y-101247382D01*
X157855244Y-101248752D01*
X157829201Y-101251492D01*
X157803338Y-101255582D01*
X157777724Y-101261032D01*
X157752431Y-101267812D01*
X157727526Y-101275902D01*
X157703079Y-101285282D01*
X157679157Y-101295932D01*
X157655826Y-101307822D01*
X157633148Y-101320912D01*
X157611186Y-101335172D01*
X157590001Y-101350572D01*
X157569651Y-101367042D01*
X157550191Y-101384572D01*
X157531675Y-101403082D01*
X157514153Y-101422542D01*
X157497673Y-101442892D01*
X157482281Y-101464082D01*
X157468019Y-101486042D01*
X157454926Y-101508722D01*
X157443038Y-101532052D01*
X157432387Y-101555972D01*
X157423003Y-101580422D01*
X157414911Y-101605322D01*
X157408133Y-101630612D01*
X157402689Y-101656232D01*
X157398592Y-101682092D01*
X157395855Y-101708132D01*
X157394484Y-101734282D01*
X157394484Y-101747382D01*
X157394484Y-101777382D01*
X157394484Y-101790992D01*
X157395909Y-101818192D01*
X157398756Y-101845272D01*
X157403016Y-101872172D01*
X157408678Y-101898812D01*
X157415726Y-101925122D01*
X157424141Y-101951022D01*
X157433901Y-101976442D01*
X157444977Y-102001322D01*
X157457341Y-102025582D01*
X157470958Y-102049172D01*
X157485790Y-102072012D01*
X157501797Y-102094042D01*
X157518935Y-102115212D01*
X157537158Y-102135442D01*
X157556415Y-102154702D01*
X157576653Y-102172922D01*
X157597817Y-102190062D01*
X157619849Y-102206072D01*
X157642689Y-102220902D01*
X157666274Y-102234522D01*
X157690539Y-102246882D01*
X157715418Y-102257962D01*
X157740842Y-102267722D01*
X157766742Y-102276142D01*
X157793048Y-102283182D01*
X157819686Y-102288852D01*
X157846584Y-102293112D01*
X157873668Y-102295952D01*
X157900864Y-102297382D01*
X157914484Y-102297382D01*
X157924484Y-102297382D01*
X157937836Y-102297382D01*
X157964509Y-102295982D01*
X157991072Y-102293192D01*
X158017453Y-102289012D01*
X158043579Y-102283462D01*
X158069379Y-102276552D01*
X158094781Y-102268292D01*
X158119717Y-102258722D01*
X158144117Y-102247862D01*
X158167916Y-102235732D01*
X158191047Y-102222382D01*
X158213448Y-102207832D01*
X158235056Y-102192132D01*
X158255814Y-102175322D01*
X158275663Y-102157452D01*
X158294550Y-102138562D01*
X158312422Y-102118712D01*
X158329231Y-102097962D01*
X158344931Y-102076352D01*
X158359478Y-102053952D01*
X158372833Y-102030822D01*
X158384959Y-102007022D01*
X158395823Y-101982622D01*
X158405395Y-101957682D01*
X158413649Y-101932282D01*
X158420562Y-101906482D01*
X158426115Y-101880352D01*
X158430294Y-101853972D01*
X158433086Y-101827412D01*
X158434484Y-101800742D01*
X158434484Y-101787382D01*
X158434484Y-101757382D01*
X158434484Y-101744032D01*
X158433086Y-101717362D01*
X158430295Y-101690792D01*
X158426116Y-101664412D01*
X158420563Y-101638292D01*
X158413650Y-101612492D01*
X158405397Y-101587082D01*
X158395825Y-101562152D01*
X158384962Y-101537752D01*
X158372836Y-101513952D01*
X158359481Y-101490822D01*
X158344934Y-101468422D01*
X158329235Y-101446812D01*
X158312426Y-101426052D01*
X158294554Y-101406202D01*
X158275667Y-101387312D01*
X158255818Y-101369442D01*
X158235061Y-101352632D01*
X158213453Y-101336932D01*
X158191052Y-101322392D01*
X158167921Y-101309032D01*
X158144123Y-101296912D01*
X158119722Y-101286042D01*
X158094787Y-101276472D01*
X158069384Y-101268222D01*
X158043585Y-101261302D01*
X158017459Y-101255752D01*
X157991078Y-101251572D01*
X157964515Y-101248782D01*
X157937842Y-101247382D01*
X157924484Y-101247382D01*
X157924484Y-100947382D01*
X157934484Y-100947382D01*
X157955428Y-100947382D01*
X157997268Y-100949572D01*
X158038936Y-100953952D01*
X158080318Y-100960512D01*
X158121300Y-100969222D01*
X158161770Y-100980062D01*
X158201616Y-100993012D01*
X158240731Y-101008022D01*
X158279007Y-101025062D01*
X158316338Y-101044082D01*
X158352622Y-101065032D01*
X158387760Y-101087852D01*
X158421656Y-101112482D01*
X158454217Y-101138842D01*
X158485353Y-101166882D01*
X158514979Y-101196502D01*
X158543014Y-101227642D01*
X158569381Y-101260202D01*
X158594008Y-101294102D01*
X158616827Y-101329232D01*
X158637776Y-101365522D01*
X158656798Y-101402852D01*
X158673839Y-101441122D01*
X158688854Y-101480242D01*
X158701801Y-101520092D01*
X158712645Y-101560562D01*
X158721357Y-101601542D01*
X158727911Y-101642922D01*
X158732291Y-101684592D01*
X158734484Y-101726432D01*
X158734484Y-101747382D01*
X158734484Y-101777382D01*
X158734484Y-101798852D01*
X158732237Y-101841732D01*
X158727748Y-101884442D01*
X158721030Y-101926862D01*
X158712102Y-101968872D01*
X158700987Y-102010352D01*
X158687717Y-102051192D01*
X158672327Y-102091282D01*
X158654860Y-102130522D01*
X158635363Y-102168782D01*
X158613891Y-102205972D01*
X158590502Y-102241992D01*
X158565260Y-102276732D01*
X158538234Y-102310112D01*
X158509498Y-102342022D01*
X158479132Y-102372392D01*
X158447218Y-102401122D01*
X158413843Y-102428152D01*
X158379100Y-102453392D01*
X158343084Y-102476782D01*
X158305893Y-102498252D01*
X158267628Y-102517752D01*
X158228396Y-102535222D01*
X158188304Y-102550612D01*
X158147461Y-102563882D01*
X158105980Y-102575002D01*
X158063973Y-102583922D01*
X158021557Y-102590642D01*
X157978847Y-102595132D01*
X157935961Y-102597382D01*
X157914484Y-102597382D01*
X157904484Y-102597382D01*
X157883278Y-102597382D01*
X157840915Y-102595162D01*
X157798726Y-102590732D01*
X157756827Y-102584092D01*
X157715333Y-102575272D01*
X157674357Y-102564292D01*
X157634012Y-102551182D01*
X157594409Y-102535982D01*
X157555655Y-102518732D01*
X157517857Y-102499472D01*
X157481119Y-102478262D01*
X157445542Y-102455152D01*
X157411222Y-102430222D01*
X157378255Y-102403522D01*
X157346729Y-102375142D01*
X157316733Y-102345142D01*
X157288347Y-102313622D01*
X157261651Y-102280652D01*
X157236716Y-102246332D01*
X157213611Y-102210752D01*
X157192401Y-102174022D01*
X157173142Y-102136222D01*
X157155887Y-102097462D01*
X157140684Y-102057862D01*
X157127575Y-102017522D01*
X157116596Y-101976542D01*
X157107776Y-101935052D01*
X157101139Y-101893152D01*
X157096705Y-101850962D01*
X157094484Y-101808602D01*
X157094484Y-101787382D01*
X157094484Y-101757382D01*
X157094484Y-101736172D01*
X157096704Y-101693812D01*
X157101138Y-101651622D01*
X157107774Y-101609722D01*
X157116593Y-101568232D01*
X157127573Y-101527252D01*
X157140681Y-101486912D01*
X157155883Y-101447302D01*
X157173137Y-101408552D01*
X157192396Y-101370752D01*
X157213606Y-101334022D01*
X157236710Y-101298442D01*
X157261645Y-101264122D01*
X157288341Y-101231152D01*
X157316726Y-101199632D01*
X157346722Y-101169632D01*
X157378247Y-101141242D01*
X157411214Y-101114552D01*
X157445534Y-101089612D01*
X157481111Y-101066512D01*
X157517849Y-101045302D01*
X157555646Y-101026042D01*
X157594400Y-101008782D01*
X157634003Y-100993582D01*
X157674348Y-100980472D01*
X157715324Y-100969492D01*
X157756818Y-100960672D01*
X157798717Y-100954042D01*
X157840905Y-100949602D01*
X157883269Y-100947382D01*
X157904484Y-100947382D01*
G37*
X157904484Y-100947382D02*
X157904484Y-101247382D01*
X157894484Y-101247382D01*
X157881394Y-101247382D01*
X157855244Y-101248752D01*
X157829201Y-101251492D01*
X157803338Y-101255582D01*
X157777724Y-101261032D01*
X157752431Y-101267812D01*
X157727526Y-101275902D01*
X157703079Y-101285282D01*
X157679157Y-101295932D01*
X157655826Y-101307822D01*
X157633148Y-101320912D01*
X157611186Y-101335172D01*
X157590001Y-101350572D01*
X157569651Y-101367042D01*
X157550191Y-101384572D01*
X157531675Y-101403082D01*
X157514153Y-101422542D01*
X157497673Y-101442892D01*
X157482281Y-101464082D01*
X157468019Y-101486042D01*
X157454926Y-101508722D01*
X157443038Y-101532052D01*
X157432387Y-101555972D01*
X157423003Y-101580422D01*
X157414911Y-101605322D01*
X157408133Y-101630612D01*
X157402689Y-101656232D01*
X157398592Y-101682092D01*
X157395855Y-101708132D01*
X157394484Y-101734282D01*
X157394484Y-101747382D01*
X157394484Y-101777382D01*
X157394484Y-101790992D01*
X157395909Y-101818192D01*
X157398756Y-101845272D01*
X157403016Y-101872172D01*
X157408678Y-101898812D01*
X157415726Y-101925122D01*
X157424141Y-101951022D01*
X157433901Y-101976442D01*
X157444977Y-102001322D01*
X157457341Y-102025582D01*
X157470958Y-102049172D01*
X157485790Y-102072012D01*
X157501797Y-102094042D01*
X157518935Y-102115212D01*
X157537158Y-102135442D01*
X157556415Y-102154702D01*
X157576653Y-102172922D01*
X157597817Y-102190062D01*
X157619849Y-102206072D01*
X157642689Y-102220902D01*
X157666274Y-102234522D01*
X157690539Y-102246882D01*
X157715418Y-102257962D01*
X157740842Y-102267722D01*
X157766742Y-102276142D01*
X157793048Y-102283182D01*
X157819686Y-102288852D01*
X157846584Y-102293112D01*
X157873668Y-102295952D01*
X157900864Y-102297382D01*
X157914484Y-102297382D01*
X157924484Y-102297382D01*
X157937836Y-102297382D01*
X157964509Y-102295982D01*
X157991072Y-102293192D01*
X158017453Y-102289012D01*
X158043579Y-102283462D01*
X158069379Y-102276552D01*
X158094781Y-102268292D01*
X158119717Y-102258722D01*
X158144117Y-102247862D01*
X158167916Y-102235732D01*
X158191047Y-102222382D01*
X158213448Y-102207832D01*
X158235056Y-102192132D01*
X158255814Y-102175322D01*
X158275663Y-102157452D01*
X158294550Y-102138562D01*
X158312422Y-102118712D01*
X158329231Y-102097962D01*
X158344931Y-102076352D01*
X158359478Y-102053952D01*
X158372833Y-102030822D01*
X158384959Y-102007022D01*
X158395823Y-101982622D01*
X158405395Y-101957682D01*
X158413649Y-101932282D01*
X158420562Y-101906482D01*
X158426115Y-101880352D01*
X158430294Y-101853972D01*
X158433086Y-101827412D01*
X158434484Y-101800742D01*
X158434484Y-101787382D01*
X158434484Y-101757382D01*
X158434484Y-101744032D01*
X158433086Y-101717362D01*
X158430295Y-101690792D01*
X158426116Y-101664412D01*
X158420563Y-101638292D01*
X158413650Y-101612492D01*
X158405397Y-101587082D01*
X158395825Y-101562152D01*
X158384962Y-101537752D01*
X158372836Y-101513952D01*
X158359481Y-101490822D01*
X158344934Y-101468422D01*
X158329235Y-101446812D01*
X158312426Y-101426052D01*
X158294554Y-101406202D01*
X158275667Y-101387312D01*
X158255818Y-101369442D01*
X158235061Y-101352632D01*
X158213453Y-101336932D01*
X158191052Y-101322392D01*
X158167921Y-101309032D01*
X158144123Y-101296912D01*
X158119722Y-101286042D01*
X158094787Y-101276472D01*
X158069384Y-101268222D01*
X158043585Y-101261302D01*
X158017459Y-101255752D01*
X157991078Y-101251572D01*
X157964515Y-101248782D01*
X157937842Y-101247382D01*
X157924484Y-101247382D01*
X157924484Y-100947382D01*
X157934484Y-100947382D01*
X157955428Y-100947382D01*
X157997268Y-100949572D01*
X158038936Y-100953952D01*
X158080318Y-100960512D01*
X158121300Y-100969222D01*
X158161770Y-100980062D01*
X158201616Y-100993012D01*
X158240731Y-101008022D01*
X158279007Y-101025062D01*
X158316338Y-101044082D01*
X158352622Y-101065032D01*
X158387760Y-101087852D01*
X158421656Y-101112482D01*
X158454217Y-101138842D01*
X158485353Y-101166882D01*
X158514979Y-101196502D01*
X158543014Y-101227642D01*
X158569381Y-101260202D01*
X158594008Y-101294102D01*
X158616827Y-101329232D01*
X158637776Y-101365522D01*
X158656798Y-101402852D01*
X158673839Y-101441122D01*
X158688854Y-101480242D01*
X158701801Y-101520092D01*
X158712645Y-101560562D01*
X158721357Y-101601542D01*
X158727911Y-101642922D01*
X158732291Y-101684592D01*
X158734484Y-101726432D01*
X158734484Y-101747382D01*
X158734484Y-101777382D01*
X158734484Y-101798852D01*
X158732237Y-101841732D01*
X158727748Y-101884442D01*
X158721030Y-101926862D01*
X158712102Y-101968872D01*
X158700987Y-102010352D01*
X158687717Y-102051192D01*
X158672327Y-102091282D01*
X158654860Y-102130522D01*
X158635363Y-102168782D01*
X158613891Y-102205972D01*
X158590502Y-102241992D01*
X158565260Y-102276732D01*
X158538234Y-102310112D01*
X158509498Y-102342022D01*
X158479132Y-102372392D01*
X158447218Y-102401122D01*
X158413843Y-102428152D01*
X158379100Y-102453392D01*
X158343084Y-102476782D01*
X158305893Y-102498252D01*
X158267628Y-102517752D01*
X158228396Y-102535222D01*
X158188304Y-102550612D01*
X158147461Y-102563882D01*
X158105980Y-102575002D01*
X158063973Y-102583922D01*
X158021557Y-102590642D01*
X157978847Y-102595132D01*
X157935961Y-102597382D01*
X157914484Y-102597382D01*
X157904484Y-102597382D01*
X157883278Y-102597382D01*
X157840915Y-102595162D01*
X157798726Y-102590732D01*
X157756827Y-102584092D01*
X157715333Y-102575272D01*
X157674357Y-102564292D01*
X157634012Y-102551182D01*
X157594409Y-102535982D01*
X157555655Y-102518732D01*
X157517857Y-102499472D01*
X157481119Y-102478262D01*
X157445542Y-102455152D01*
X157411222Y-102430222D01*
X157378255Y-102403522D01*
X157346729Y-102375142D01*
X157316733Y-102345142D01*
X157288347Y-102313622D01*
X157261651Y-102280652D01*
X157236716Y-102246332D01*
X157213611Y-102210752D01*
X157192401Y-102174022D01*
X157173142Y-102136222D01*
X157155887Y-102097462D01*
X157140684Y-102057862D01*
X157127575Y-102017522D01*
X157116596Y-101976542D01*
X157107776Y-101935052D01*
X157101139Y-101893152D01*
X157096705Y-101850962D01*
X157094484Y-101808602D01*
X157094484Y-101787382D01*
X157094484Y-101757382D01*
X157094484Y-101736172D01*
X157096704Y-101693812D01*
X157101138Y-101651622D01*
X157107774Y-101609722D01*
X157116593Y-101568232D01*
X157127573Y-101527252D01*
X157140681Y-101486912D01*
X157155883Y-101447302D01*
X157173137Y-101408552D01*
X157192396Y-101370752D01*
X157213606Y-101334022D01*
X157236710Y-101298442D01*
X157261645Y-101264122D01*
X157288341Y-101231152D01*
X157316726Y-101199632D01*
X157346722Y-101169632D01*
X157378247Y-101141242D01*
X157411214Y-101114552D01*
X157445534Y-101089612D01*
X157481111Y-101066512D01*
X157517849Y-101045302D01*
X157555646Y-101026042D01*
X157594400Y-101008782D01*
X157634003Y-100993582D01*
X157674348Y-100980472D01*
X157715324Y-100969492D01*
X157756818Y-100960672D01*
X157798717Y-100954042D01*
X157840905Y-100949602D01*
X157883269Y-100947382D01*
X157904484Y-100947382D01*
G04 #@! TD*
D11*
G04 #@! TO.P,C1,2*
G04 #@! TO.N,GND*
X160782000Y-107696000D03*
G04 #@! TO.P,C1,1*
G04 #@! TO.N,VCC*
X156782000Y-107696000D03*
G04 #@! TD*
D12*
G04 #@! TO.P,J1,1*
G04 #@! TO.N,Net-(J1-Pad1)*
X156464000Y-88138000D03*
G04 #@! TD*
G04 #@! TO.P,J2,1*
G04 #@! TO.N,Net-(J2-Pad1)*
X145034000Y-99822000D03*
G04 #@! TD*
G04 #@! TO.P,J3,1*
G04 #@! TO.N,Net-(J3-Pad1)*
X148336000Y-93726000D03*
G04 #@! TD*
G04 #@! TO.P,J4,1*
G04 #@! TO.N,Net-(J4-Pad1)*
X165354000Y-99822000D03*
G04 #@! TD*
G04 #@! TO.P,J5,1*
G04 #@! TO.N,Net-(J5-Pad1)*
X165608000Y-104648000D03*
G04 #@! TD*
G04 #@! TO.P,J6,1*
G04 #@! TO.N,VCC*
X147320000Y-108204000D03*
G04 #@! TD*
G04 #@! TO.P,J7,1*
G04 #@! TO.N,GND*
X157988000Y-114554000D03*
G04 #@! TD*
D13*
G04 #@! TO.P,MK1,1*
G04 #@! TO.N,Net-(J3-Pad1)*
X156839484Y-99197382D03*
D14*
G04 #@! TO.P,MK1,4*
G04 #@! TO.N,GND*
X157914484Y-102347382D03*
D13*
G04 #@! TO.P,MK1,2*
G04 #@! TO.N,Net-(J2-Pad1)*
X156839484Y-99847382D03*
G04 #@! TO.P,MK1,3*
G04 #@! TO.N,VCC*
X156839484Y-100497382D03*
G04 #@! TO.P,MK1,7*
G04 #@! TO.N,Net-(J1-Pad1)*
X158989484Y-99197382D03*
G04 #@! TO.P,MK1,6*
G04 #@! TO.N,Net-(J4-Pad1)*
X158989484Y-99847382D03*
G04 #@! TO.P,MK1,5*
G04 #@! TO.N,Net-(J5-Pad1)*
X158989484Y-100497382D03*
G04 #@! TD*
D15*
G04 #@! TO.P,R1,2*
G04 #@! TO.N,GND*
X160528000Y-94488000D03*
G04 #@! TO.P,R1,1*
G04 #@! TO.N,Net-(J1-Pad1)*
X156528000Y-94488000D03*
G04 #@! TD*
D16*
G04 #@! TO.N,GND*
X157988000Y-114554000D02*
X159063000Y-114554000D01*
X160782000Y-108896000D02*
X160782000Y-107696000D01*
X159063000Y-114554000D02*
X160782000Y-112835000D01*
X160782000Y-112835000D02*
X160782000Y-108896000D01*
G04 #@! TO.N,VCC*
X156739484Y-100497382D02*
X156839484Y-100497382D01*
X156274000Y-108204000D02*
X156782000Y-107696000D01*
G04 #@! TO.N,GND*
X160582000Y-107696000D02*
X160782000Y-107696000D01*
X157914484Y-105028484D02*
X160582000Y-107696000D01*
X157914484Y-102347382D02*
X157914484Y-105028484D01*
X167894000Y-94488000D02*
X160528000Y-94488000D01*
X160782000Y-107696000D02*
X168148000Y-107696000D01*
X168148000Y-107696000D02*
X170688000Y-105156000D01*
X170688000Y-105156000D02*
X170688000Y-97282000D01*
X170688000Y-97282000D02*
X167894000Y-94488000D01*
G04 #@! TO.N,VCC*
X152400000Y-104236866D02*
X152400000Y-108204000D01*
X156839484Y-100497382D02*
X156139484Y-100497382D01*
X147320000Y-108204000D02*
X152400000Y-108204000D01*
X156139484Y-100497382D02*
X152400000Y-104236866D01*
X152400000Y-108204000D02*
X156274000Y-108204000D01*
G04 #@! TO.N,Net-(J1-Pad1)*
X158889484Y-99197382D02*
X158989484Y-99197382D01*
X156528000Y-96835898D02*
X158889484Y-99197382D01*
X156528000Y-94488000D02*
X156528000Y-96835898D01*
X156528000Y-88202000D02*
X156464000Y-88138000D01*
X156528000Y-94488000D02*
X156528000Y-88202000D01*
G04 #@! TO.N,Net-(J2-Pad1)*
X145059382Y-99847382D02*
X145034000Y-99822000D01*
X156839484Y-99847382D02*
X145059382Y-99847382D01*
G04 #@! TO.N,Net-(J3-Pad1)*
X156839484Y-98597382D02*
X151968102Y-93726000D01*
X149411000Y-93726000D02*
X148336000Y-93726000D01*
X151968102Y-93726000D02*
X149411000Y-93726000D01*
X156839484Y-99197382D02*
X156839484Y-98597382D01*
G04 #@! TO.N,Net-(J4-Pad1)*
X159014866Y-99822000D02*
X158989484Y-99847382D01*
X165354000Y-99822000D02*
X159014866Y-99822000D01*
G04 #@! TO.N,Net-(J5-Pad1)*
X164533000Y-104648000D02*
X165608000Y-104648000D01*
X162540102Y-104648000D02*
X164533000Y-104648000D01*
X158989484Y-101097382D02*
X162540102Y-104648000D01*
X158989484Y-100497382D02*
X158989484Y-101097382D01*
G04 #@! TD*
D17*
G04 #@! TO.N,GND*
G36*
X160148312Y-85444804D02*
X161711118Y-85727406D01*
X163239643Y-86158494D01*
X164719813Y-86734101D01*
X166137999Y-87448926D01*
X167481143Y-88296387D01*
X168736878Y-89268681D01*
X169893642Y-90356855D01*
X170940783Y-91550891D01*
X171868660Y-92839794D01*
X172668730Y-94211696D01*
X173333625Y-95653965D01*
X173857224Y-97153322D01*
X174234705Y-98695960D01*
X174462593Y-100267677D01*
X174538790Y-101854000D01*
X174523037Y-102575935D01*
X174377719Y-104157425D01*
X174081490Y-105717705D01*
X173637079Y-107242410D01*
X173048578Y-108717501D01*
X172321405Y-110129395D01*
X171462255Y-111465093D01*
X170479040Y-112712295D01*
X169380812Y-113859519D01*
X168177684Y-114896201D01*
X166880733Y-115812795D01*
X165501901Y-116600862D01*
X164053885Y-117253146D01*
X162550016Y-117763640D01*
X161004142Y-118127645D01*
X159430496Y-118341809D01*
X157843569Y-118404160D01*
X156257971Y-118314123D01*
X154688303Y-118072528D01*
X153149017Y-117681599D01*
X151654287Y-117144936D01*
X150217875Y-116467480D01*
X148853007Y-115655469D01*
X147740506Y-114839750D01*
X156678000Y-114839750D01*
X156678000Y-115355310D01*
X156774673Y-115588699D01*
X156953302Y-115767327D01*
X157186691Y-115864000D01*
X157702250Y-115864000D01*
X157861000Y-115705250D01*
X157861000Y-114681000D01*
X158115000Y-114681000D01*
X158115000Y-115705250D01*
X158273750Y-115864000D01*
X158789309Y-115864000D01*
X159022698Y-115767327D01*
X159201327Y-115588699D01*
X159298000Y-115355310D01*
X159298000Y-114839750D01*
X159139250Y-114681000D01*
X158115000Y-114681000D01*
X157861000Y-114681000D01*
X156836750Y-114681000D01*
X156678000Y-114839750D01*
X147740506Y-114839750D01*
X147572250Y-114716380D01*
X146492528Y-113752690D01*
X156678000Y-113752690D01*
X156678000Y-114268250D01*
X156836750Y-114427000D01*
X157861000Y-114427000D01*
X157861000Y-113402750D01*
X158115000Y-113402750D01*
X158115000Y-114427000D01*
X159139250Y-114427000D01*
X159298000Y-114268250D01*
X159298000Y-113752690D01*
X159201327Y-113519301D01*
X159022698Y-113340673D01*
X158789309Y-113244000D01*
X158273750Y-113244000D01*
X158115000Y-113402750D01*
X157861000Y-113402750D01*
X157702250Y-113244000D01*
X157186691Y-113244000D01*
X156953302Y-113340673D01*
X156774673Y-113519301D01*
X156678000Y-113752690D01*
X146492528Y-113752690D01*
X146387398Y-113658858D01*
X145309359Y-112492643D01*
X144348061Y-111228471D01*
X143512353Y-109877982D01*
X142809931Y-108453612D01*
X142247263Y-106968475D01*
X141829530Y-105436247D01*
X141560577Y-103871034D01*
X141442882Y-102287249D01*
X141477527Y-100699475D01*
X141661274Y-99147000D01*
X143711560Y-99147000D01*
X143711560Y-100497000D01*
X143760843Y-100744765D01*
X143901191Y-100954809D01*
X144111235Y-101095157D01*
X144359000Y-101144440D01*
X145709000Y-101144440D01*
X145956765Y-101095157D01*
X146166809Y-100954809D01*
X146307157Y-100744765D01*
X146319566Y-100682382D01*
X154773616Y-100682382D01*
X151867720Y-103588279D01*
X151797999Y-103634865D01*
X151613448Y-103911066D01*
X151565000Y-104154630D01*
X151565000Y-104154633D01*
X151548643Y-104236866D01*
X151565000Y-104319099D01*
X151565001Y-107369000D01*
X148610614Y-107369000D01*
X148593157Y-107281235D01*
X148452809Y-107071191D01*
X148242765Y-106930843D01*
X147995000Y-106881560D01*
X146645000Y-106881560D01*
X146397235Y-106930843D01*
X146187191Y-107071191D01*
X146046843Y-107281235D01*
X145997560Y-107529000D01*
X145997560Y-108879000D01*
X146046843Y-109126765D01*
X146187191Y-109336809D01*
X146397235Y-109477157D01*
X146645000Y-109526440D01*
X147995000Y-109526440D01*
X148242765Y-109477157D01*
X148452809Y-109336809D01*
X148593157Y-109126765D01*
X148610614Y-109039000D01*
X152317763Y-109039000D01*
X152400000Y-109055358D01*
X152482237Y-109039000D01*
X155451687Y-109039000D01*
X155534235Y-109094157D01*
X155782000Y-109143440D01*
X157782000Y-109143440D01*
X158029765Y-109094157D01*
X158239809Y-108953809D01*
X158380157Y-108743765D01*
X158429440Y-108496000D01*
X158429440Y-107981750D01*
X159147000Y-107981750D01*
X159147000Y-108622310D01*
X159243673Y-108855699D01*
X159422302Y-109034327D01*
X159655691Y-109131000D01*
X160496250Y-109131000D01*
X160655000Y-108972250D01*
X160655000Y-107823000D01*
X160909000Y-107823000D01*
X160909000Y-108972250D01*
X161067750Y-109131000D01*
X161908309Y-109131000D01*
X162141698Y-109034327D01*
X162320327Y-108855699D01*
X162417000Y-108622310D01*
X162417000Y-107981750D01*
X162258250Y-107823000D01*
X160909000Y-107823000D01*
X160655000Y-107823000D01*
X159305750Y-107823000D01*
X159147000Y-107981750D01*
X158429440Y-107981750D01*
X158429440Y-106896000D01*
X158404316Y-106769690D01*
X159147000Y-106769690D01*
X159147000Y-107410250D01*
X159305750Y-107569000D01*
X160655000Y-107569000D01*
X160655000Y-106419750D01*
X160909000Y-106419750D01*
X160909000Y-107569000D01*
X162258250Y-107569000D01*
X162417000Y-107410250D01*
X162417000Y-106769690D01*
X162320327Y-106536301D01*
X162141698Y-106357673D01*
X161908309Y-106261000D01*
X161067750Y-106261000D01*
X160909000Y-106419750D01*
X160655000Y-106419750D01*
X160496250Y-106261000D01*
X159655691Y-106261000D01*
X159422302Y-106357673D01*
X159243673Y-106536301D01*
X159147000Y-106769690D01*
X158404316Y-106769690D01*
X158380157Y-106648235D01*
X158239809Y-106438191D01*
X158029765Y-106297843D01*
X157782000Y-106248560D01*
X155782000Y-106248560D01*
X155534235Y-106297843D01*
X155324191Y-106438191D01*
X155183843Y-106648235D01*
X155134560Y-106896000D01*
X155134560Y-107369000D01*
X153235000Y-107369000D01*
X153235000Y-104582733D01*
X156483957Y-101333777D01*
X156521941Y-101341332D01*
X156521195Y-101347633D01*
X156513725Y-101362781D01*
X156502745Y-101403760D01*
X156501642Y-101420599D01*
X156494980Y-101436104D01*
X156486161Y-101477594D01*
X156485940Y-101494474D01*
X156480097Y-101510313D01*
X156473461Y-101552212D01*
X156474124Y-101569081D01*
X156469119Y-101585200D01*
X156464685Y-101627389D01*
X156466229Y-101644195D01*
X156462075Y-101660553D01*
X156459855Y-101702912D01*
X156462277Y-101719617D01*
X156458984Y-101736172D01*
X156458984Y-101808602D01*
X156462279Y-101825165D01*
X156459856Y-101841877D01*
X156462077Y-101884236D01*
X156466230Y-101900586D01*
X156464686Y-101917385D01*
X156469120Y-101959574D01*
X156474128Y-101975702D01*
X156473465Y-101992576D01*
X156480102Y-102034476D01*
X156485945Y-102050312D01*
X156486166Y-102067195D01*
X156494986Y-102108684D01*
X156501642Y-102124175D01*
X156502744Y-102141000D01*
X156513723Y-102181980D01*
X156521199Y-102197140D01*
X156523186Y-102213926D01*
X156536295Y-102254266D01*
X156544545Y-102268996D01*
X156547404Y-102285631D01*
X156562607Y-102325231D01*
X156571599Y-102339480D01*
X156575317Y-102355917D01*
X156592572Y-102394677D01*
X156602318Y-102408468D01*
X156606901Y-102424720D01*
X156626160Y-102462520D01*
X156636629Y-102475801D01*
X156642067Y-102491816D01*
X156663277Y-102528546D01*
X156674388Y-102541214D01*
X156680630Y-102556860D01*
X156703735Y-102592441D01*
X156715517Y-102604536D01*
X156722586Y-102619870D01*
X156747521Y-102654190D01*
X156759905Y-102665637D01*
X156767756Y-102680562D01*
X156794452Y-102713532D01*
X156807464Y-102724355D01*
X156816118Y-102738898D01*
X156844504Y-102770418D01*
X156857989Y-102780486D01*
X156867337Y-102794478D01*
X156897333Y-102824479D01*
X156911414Y-102833889D01*
X156921547Y-102847456D01*
X156953073Y-102875836D01*
X156967531Y-102884436D01*
X156978287Y-102897370D01*
X157011254Y-102924070D01*
X157026239Y-102931955D01*
X157037733Y-102944387D01*
X157072053Y-102969318D01*
X157087320Y-102976354D01*
X157099360Y-102988086D01*
X157134937Y-103011196D01*
X157150654Y-103017469D01*
X157163377Y-103028626D01*
X157200115Y-103049836D01*
X157216089Y-103055258D01*
X157229335Y-103065701D01*
X157267133Y-103084961D01*
X157283413Y-103089553D01*
X157297229Y-103099315D01*
X157335983Y-103116565D01*
X157352432Y-103120285D01*
X157366694Y-103129283D01*
X157406298Y-103144483D01*
X157422909Y-103147336D01*
X157437617Y-103155574D01*
X157477962Y-103168684D01*
X157494729Y-103170669D01*
X157509870Y-103178136D01*
X157550847Y-103189116D01*
X157567693Y-103190220D01*
X157583203Y-103196884D01*
X157624697Y-103205704D01*
X157641547Y-103205925D01*
X157657357Y-103211759D01*
X157699256Y-103218399D01*
X157716183Y-103217735D01*
X157732361Y-103222757D01*
X157774550Y-103227187D01*
X157791328Y-103225644D01*
X157807658Y-103229791D01*
X157850021Y-103232011D01*
X157866724Y-103229589D01*
X157883278Y-103232882D01*
X157935961Y-103232882D01*
X157952535Y-103229585D01*
X157969257Y-103232009D01*
X158012143Y-103229759D01*
X158028492Y-103225606D01*
X158045289Y-103227149D01*
X158087999Y-103222659D01*
X158104127Y-103217651D01*
X158120999Y-103218313D01*
X158163415Y-103211593D01*
X158179176Y-103205778D01*
X158195975Y-103205561D01*
X158237983Y-103196641D01*
X158253585Y-103189942D01*
X158270531Y-103188829D01*
X158312013Y-103177709D01*
X158327115Y-103170259D01*
X158343832Y-103168281D01*
X158384675Y-103155011D01*
X158399406Y-103146762D01*
X158416048Y-103143902D01*
X158456140Y-103128512D01*
X158470430Y-103119495D01*
X158486912Y-103115765D01*
X158526144Y-103098295D01*
X158539929Y-103088552D01*
X158556174Y-103083969D01*
X158594439Y-103064469D01*
X158607669Y-103054038D01*
X158623618Y-103048625D01*
X158660809Y-103027156D01*
X158673516Y-103016013D01*
X158689212Y-103009751D01*
X158725228Y-102986361D01*
X158737305Y-102974596D01*
X158752616Y-102967538D01*
X158787358Y-102942298D01*
X158798839Y-102929879D01*
X158813807Y-102922003D01*
X158847182Y-102894973D01*
X158857941Y-102882035D01*
X158872406Y-102873431D01*
X158904320Y-102844701D01*
X158914451Y-102831136D01*
X158928528Y-102821729D01*
X158958894Y-102791359D01*
X158968247Y-102777359D01*
X158981736Y-102767288D01*
X159010472Y-102735378D01*
X159019129Y-102720830D01*
X159032143Y-102710004D01*
X159059169Y-102676624D01*
X159067009Y-102661720D01*
X159079377Y-102650288D01*
X159104619Y-102615548D01*
X159111699Y-102600193D01*
X159123495Y-102588082D01*
X159146884Y-102552063D01*
X159153131Y-102536402D01*
X159164248Y-102523726D01*
X159185720Y-102486536D01*
X159188774Y-102477539D01*
X161891517Y-105180283D01*
X161938101Y-105250001D01*
X162214301Y-105434552D01*
X162457865Y-105483000D01*
X162457868Y-105483000D01*
X162540101Y-105499357D01*
X162622334Y-105483000D01*
X164317386Y-105483000D01*
X164334843Y-105570765D01*
X164475191Y-105780809D01*
X164685235Y-105921157D01*
X164933000Y-105970440D01*
X166283000Y-105970440D01*
X166530765Y-105921157D01*
X166740809Y-105780809D01*
X166881157Y-105570765D01*
X166930440Y-105323000D01*
X166930440Y-103973000D01*
X166881157Y-103725235D01*
X166740809Y-103515191D01*
X166530765Y-103374843D01*
X166283000Y-103325560D01*
X164933000Y-103325560D01*
X164685235Y-103374843D01*
X164475191Y-103515191D01*
X164334843Y-103725235D01*
X164317386Y-103813000D01*
X162885970Y-103813000D01*
X159909288Y-100836319D01*
X159936924Y-100697382D01*
X159936924Y-100657000D01*
X164063386Y-100657000D01*
X164080843Y-100744765D01*
X164221191Y-100954809D01*
X164431235Y-101095157D01*
X164679000Y-101144440D01*
X166029000Y-101144440D01*
X166276765Y-101095157D01*
X166486809Y-100954809D01*
X166627157Y-100744765D01*
X166676440Y-100497000D01*
X166676440Y-99147000D01*
X166627157Y-98899235D01*
X166486809Y-98689191D01*
X166276765Y-98548843D01*
X166029000Y-98499560D01*
X164679000Y-98499560D01*
X164431235Y-98548843D01*
X164221191Y-98689191D01*
X164080843Y-98899235D01*
X164063386Y-98987000D01*
X159934859Y-98987000D01*
X159887641Y-98749617D01*
X159747293Y-98539573D01*
X159537249Y-98399225D01*
X159289484Y-98349942D01*
X159222912Y-98349942D01*
X157363000Y-96490031D01*
X157363000Y-95985440D01*
X157528000Y-95985440D01*
X157775765Y-95936157D01*
X157985809Y-95795809D01*
X158126157Y-95585765D01*
X158175440Y-95338000D01*
X158175440Y-94773750D01*
X158893000Y-94773750D01*
X158893000Y-95464310D01*
X158989673Y-95697699D01*
X159168302Y-95876327D01*
X159401691Y-95973000D01*
X160242250Y-95973000D01*
X160401000Y-95814250D01*
X160401000Y-94615000D01*
X160655000Y-94615000D01*
X160655000Y-95814250D01*
X160813750Y-95973000D01*
X161654309Y-95973000D01*
X161887698Y-95876327D01*
X162066327Y-95697699D01*
X162163000Y-95464310D01*
X162163000Y-94773750D01*
X162004250Y-94615000D01*
X160655000Y-94615000D01*
X160401000Y-94615000D01*
X159051750Y-94615000D01*
X158893000Y-94773750D01*
X158175440Y-94773750D01*
X158175440Y-93638000D01*
X158150316Y-93511690D01*
X158893000Y-93511690D01*
X158893000Y-94202250D01*
X159051750Y-94361000D01*
X160401000Y-94361000D01*
X160401000Y-93161750D01*
X160655000Y-93161750D01*
X160655000Y-94361000D01*
X162004250Y-94361000D01*
X162163000Y-94202250D01*
X162163000Y-93511690D01*
X162066327Y-93278301D01*
X161887698Y-93099673D01*
X161654309Y-93003000D01*
X160813750Y-93003000D01*
X160655000Y-93161750D01*
X160401000Y-93161750D01*
X160242250Y-93003000D01*
X159401691Y-93003000D01*
X159168302Y-93099673D01*
X158989673Y-93278301D01*
X158893000Y-93511690D01*
X158150316Y-93511690D01*
X158126157Y-93390235D01*
X157985809Y-93180191D01*
X157775765Y-93039843D01*
X157528000Y-92990560D01*
X157363000Y-92990560D01*
X157363000Y-89415884D01*
X157386765Y-89411157D01*
X157596809Y-89270809D01*
X157737157Y-89060765D01*
X157786440Y-88813000D01*
X157786440Y-87463000D01*
X157737157Y-87215235D01*
X157596809Y-87005191D01*
X157386765Y-86864843D01*
X157139000Y-86815560D01*
X155789000Y-86815560D01*
X155541235Y-86864843D01*
X155331191Y-87005191D01*
X155190843Y-87215235D01*
X155141560Y-87463000D01*
X155141560Y-88813000D01*
X155190843Y-89060765D01*
X155331191Y-89270809D01*
X155541235Y-89411157D01*
X155693001Y-89441345D01*
X155693000Y-92990560D01*
X155528000Y-92990560D01*
X155280235Y-93039843D01*
X155070191Y-93180191D01*
X154929843Y-93390235D01*
X154880560Y-93638000D01*
X154880560Y-95338000D01*
X154910254Y-95487284D01*
X152616689Y-93193720D01*
X152570103Y-93123999D01*
X152293903Y-92939448D01*
X152050339Y-92891000D01*
X152050335Y-92891000D01*
X151968102Y-92874643D01*
X151885869Y-92891000D01*
X149626614Y-92891000D01*
X149609157Y-92803235D01*
X149468809Y-92593191D01*
X149258765Y-92452843D01*
X149011000Y-92403560D01*
X147661000Y-92403560D01*
X147413235Y-92452843D01*
X147203191Y-92593191D01*
X147062843Y-92803235D01*
X147013560Y-93051000D01*
X147013560Y-94401000D01*
X147062843Y-94648765D01*
X147203191Y-94858809D01*
X147413235Y-94999157D01*
X147661000Y-95048440D01*
X149011000Y-95048440D01*
X149258765Y-94999157D01*
X149468809Y-94858809D01*
X149609157Y-94648765D01*
X149626614Y-94561000D01*
X151622235Y-94561000D01*
X155919680Y-98858447D01*
X155892044Y-98997382D01*
X155892044Y-99012382D01*
X146329663Y-99012382D01*
X146307157Y-98899235D01*
X146166809Y-98689191D01*
X145956765Y-98548843D01*
X145709000Y-98499560D01*
X144359000Y-98499560D01*
X144111235Y-98548843D01*
X143901191Y-98689191D01*
X143760843Y-98899235D01*
X143711560Y-99147000D01*
X141661274Y-99147000D01*
X141664194Y-99122332D01*
X142001164Y-97570340D01*
X142485335Y-96057791D01*
X143112248Y-94598611D01*
X143876132Y-93206236D01*
X144769951Y-91893486D01*
X145785478Y-90672448D01*
X146913360Y-89554366D01*
X148143213Y-88549534D01*
X149463713Y-87667204D01*
X150862701Y-86915501D01*
X152327296Y-86301345D01*
X153844013Y-85830392D01*
X155398886Y-85506978D01*
X156977598Y-85334081D01*
X158565614Y-85313292D01*
X160148312Y-85444804D01*
X160148312Y-85444804D01*
G37*
X160148312Y-85444804D02*
X161711118Y-85727406D01*
X163239643Y-86158494D01*
X164719813Y-86734101D01*
X166137999Y-87448926D01*
X167481143Y-88296387D01*
X168736878Y-89268681D01*
X169893642Y-90356855D01*
X170940783Y-91550891D01*
X171868660Y-92839794D01*
X172668730Y-94211696D01*
X173333625Y-95653965D01*
X173857224Y-97153322D01*
X174234705Y-98695960D01*
X174462593Y-100267677D01*
X174538790Y-101854000D01*
X174523037Y-102575935D01*
X174377719Y-104157425D01*
X174081490Y-105717705D01*
X173637079Y-107242410D01*
X173048578Y-108717501D01*
X172321405Y-110129395D01*
X171462255Y-111465093D01*
X170479040Y-112712295D01*
X169380812Y-113859519D01*
X168177684Y-114896201D01*
X166880733Y-115812795D01*
X165501901Y-116600862D01*
X164053885Y-117253146D01*
X162550016Y-117763640D01*
X161004142Y-118127645D01*
X159430496Y-118341809D01*
X157843569Y-118404160D01*
X156257971Y-118314123D01*
X154688303Y-118072528D01*
X153149017Y-117681599D01*
X151654287Y-117144936D01*
X150217875Y-116467480D01*
X148853007Y-115655469D01*
X147740506Y-114839750D01*
X156678000Y-114839750D01*
X156678000Y-115355310D01*
X156774673Y-115588699D01*
X156953302Y-115767327D01*
X157186691Y-115864000D01*
X157702250Y-115864000D01*
X157861000Y-115705250D01*
X157861000Y-114681000D01*
X158115000Y-114681000D01*
X158115000Y-115705250D01*
X158273750Y-115864000D01*
X158789309Y-115864000D01*
X159022698Y-115767327D01*
X159201327Y-115588699D01*
X159298000Y-115355310D01*
X159298000Y-114839750D01*
X159139250Y-114681000D01*
X158115000Y-114681000D01*
X157861000Y-114681000D01*
X156836750Y-114681000D01*
X156678000Y-114839750D01*
X147740506Y-114839750D01*
X147572250Y-114716380D01*
X146492528Y-113752690D01*
X156678000Y-113752690D01*
X156678000Y-114268250D01*
X156836750Y-114427000D01*
X157861000Y-114427000D01*
X157861000Y-113402750D01*
X158115000Y-113402750D01*
X158115000Y-114427000D01*
X159139250Y-114427000D01*
X159298000Y-114268250D01*
X159298000Y-113752690D01*
X159201327Y-113519301D01*
X159022698Y-113340673D01*
X158789309Y-113244000D01*
X158273750Y-113244000D01*
X158115000Y-113402750D01*
X157861000Y-113402750D01*
X157702250Y-113244000D01*
X157186691Y-113244000D01*
X156953302Y-113340673D01*
X156774673Y-113519301D01*
X156678000Y-113752690D01*
X146492528Y-113752690D01*
X146387398Y-113658858D01*
X145309359Y-112492643D01*
X144348061Y-111228471D01*
X143512353Y-109877982D01*
X142809931Y-108453612D01*
X142247263Y-106968475D01*
X141829530Y-105436247D01*
X141560577Y-103871034D01*
X141442882Y-102287249D01*
X141477527Y-100699475D01*
X141661274Y-99147000D01*
X143711560Y-99147000D01*
X143711560Y-100497000D01*
X143760843Y-100744765D01*
X143901191Y-100954809D01*
X144111235Y-101095157D01*
X144359000Y-101144440D01*
X145709000Y-101144440D01*
X145956765Y-101095157D01*
X146166809Y-100954809D01*
X146307157Y-100744765D01*
X146319566Y-100682382D01*
X154773616Y-100682382D01*
X151867720Y-103588279D01*
X151797999Y-103634865D01*
X151613448Y-103911066D01*
X151565000Y-104154630D01*
X151565000Y-104154633D01*
X151548643Y-104236866D01*
X151565000Y-104319099D01*
X151565001Y-107369000D01*
X148610614Y-107369000D01*
X148593157Y-107281235D01*
X148452809Y-107071191D01*
X148242765Y-106930843D01*
X147995000Y-106881560D01*
X146645000Y-106881560D01*
X146397235Y-106930843D01*
X146187191Y-107071191D01*
X146046843Y-107281235D01*
X145997560Y-107529000D01*
X145997560Y-108879000D01*
X146046843Y-109126765D01*
X146187191Y-109336809D01*
X146397235Y-109477157D01*
X146645000Y-109526440D01*
X147995000Y-109526440D01*
X148242765Y-109477157D01*
X148452809Y-109336809D01*
X148593157Y-109126765D01*
X148610614Y-109039000D01*
X152317763Y-109039000D01*
X152400000Y-109055358D01*
X152482237Y-109039000D01*
X155451687Y-109039000D01*
X155534235Y-109094157D01*
X155782000Y-109143440D01*
X157782000Y-109143440D01*
X158029765Y-109094157D01*
X158239809Y-108953809D01*
X158380157Y-108743765D01*
X158429440Y-108496000D01*
X158429440Y-107981750D01*
X159147000Y-107981750D01*
X159147000Y-108622310D01*
X159243673Y-108855699D01*
X159422302Y-109034327D01*
X159655691Y-109131000D01*
X160496250Y-109131000D01*
X160655000Y-108972250D01*
X160655000Y-107823000D01*
X160909000Y-107823000D01*
X160909000Y-108972250D01*
X161067750Y-109131000D01*
X161908309Y-109131000D01*
X162141698Y-109034327D01*
X162320327Y-108855699D01*
X162417000Y-108622310D01*
X162417000Y-107981750D01*
X162258250Y-107823000D01*
X160909000Y-107823000D01*
X160655000Y-107823000D01*
X159305750Y-107823000D01*
X159147000Y-107981750D01*
X158429440Y-107981750D01*
X158429440Y-106896000D01*
X158404316Y-106769690D01*
X159147000Y-106769690D01*
X159147000Y-107410250D01*
X159305750Y-107569000D01*
X160655000Y-107569000D01*
X160655000Y-106419750D01*
X160909000Y-106419750D01*
X160909000Y-107569000D01*
X162258250Y-107569000D01*
X162417000Y-107410250D01*
X162417000Y-106769690D01*
X162320327Y-106536301D01*
X162141698Y-106357673D01*
X161908309Y-106261000D01*
X161067750Y-106261000D01*
X160909000Y-106419750D01*
X160655000Y-106419750D01*
X160496250Y-106261000D01*
X159655691Y-106261000D01*
X159422302Y-106357673D01*
X159243673Y-106536301D01*
X159147000Y-106769690D01*
X158404316Y-106769690D01*
X158380157Y-106648235D01*
X158239809Y-106438191D01*
X158029765Y-106297843D01*
X157782000Y-106248560D01*
X155782000Y-106248560D01*
X155534235Y-106297843D01*
X155324191Y-106438191D01*
X155183843Y-106648235D01*
X155134560Y-106896000D01*
X155134560Y-107369000D01*
X153235000Y-107369000D01*
X153235000Y-104582733D01*
X156483957Y-101333777D01*
X156521941Y-101341332D01*
X156521195Y-101347633D01*
X156513725Y-101362781D01*
X156502745Y-101403760D01*
X156501642Y-101420599D01*
X156494980Y-101436104D01*
X156486161Y-101477594D01*
X156485940Y-101494474D01*
X156480097Y-101510313D01*
X156473461Y-101552212D01*
X156474124Y-101569081D01*
X156469119Y-101585200D01*
X156464685Y-101627389D01*
X156466229Y-101644195D01*
X156462075Y-101660553D01*
X156459855Y-101702912D01*
X156462277Y-101719617D01*
X156458984Y-101736172D01*
X156458984Y-101808602D01*
X156462279Y-101825165D01*
X156459856Y-101841877D01*
X156462077Y-101884236D01*
X156466230Y-101900586D01*
X156464686Y-101917385D01*
X156469120Y-101959574D01*
X156474128Y-101975702D01*
X156473465Y-101992576D01*
X156480102Y-102034476D01*
X156485945Y-102050312D01*
X156486166Y-102067195D01*
X156494986Y-102108684D01*
X156501642Y-102124175D01*
X156502744Y-102141000D01*
X156513723Y-102181980D01*
X156521199Y-102197140D01*
X156523186Y-102213926D01*
X156536295Y-102254266D01*
X156544545Y-102268996D01*
X156547404Y-102285631D01*
X156562607Y-102325231D01*
X156571599Y-102339480D01*
X156575317Y-102355917D01*
X156592572Y-102394677D01*
X156602318Y-102408468D01*
X156606901Y-102424720D01*
X156626160Y-102462520D01*
X156636629Y-102475801D01*
X156642067Y-102491816D01*
X156663277Y-102528546D01*
X156674388Y-102541214D01*
X156680630Y-102556860D01*
X156703735Y-102592441D01*
X156715517Y-102604536D01*
X156722586Y-102619870D01*
X156747521Y-102654190D01*
X156759905Y-102665637D01*
X156767756Y-102680562D01*
X156794452Y-102713532D01*
X156807464Y-102724355D01*
X156816118Y-102738898D01*
X156844504Y-102770418D01*
X156857989Y-102780486D01*
X156867337Y-102794478D01*
X156897333Y-102824479D01*
X156911414Y-102833889D01*
X156921547Y-102847456D01*
X156953073Y-102875836D01*
X156967531Y-102884436D01*
X156978287Y-102897370D01*
X157011254Y-102924070D01*
X157026239Y-102931955D01*
X157037733Y-102944387D01*
X157072053Y-102969318D01*
X157087320Y-102976354D01*
X157099360Y-102988086D01*
X157134937Y-103011196D01*
X157150654Y-103017469D01*
X157163377Y-103028626D01*
X157200115Y-103049836D01*
X157216089Y-103055258D01*
X157229335Y-103065701D01*
X157267133Y-103084961D01*
X157283413Y-103089553D01*
X157297229Y-103099315D01*
X157335983Y-103116565D01*
X157352432Y-103120285D01*
X157366694Y-103129283D01*
X157406298Y-103144483D01*
X157422909Y-103147336D01*
X157437617Y-103155574D01*
X157477962Y-103168684D01*
X157494729Y-103170669D01*
X157509870Y-103178136D01*
X157550847Y-103189116D01*
X157567693Y-103190220D01*
X157583203Y-103196884D01*
X157624697Y-103205704D01*
X157641547Y-103205925D01*
X157657357Y-103211759D01*
X157699256Y-103218399D01*
X157716183Y-103217735D01*
X157732361Y-103222757D01*
X157774550Y-103227187D01*
X157791328Y-103225644D01*
X157807658Y-103229791D01*
X157850021Y-103232011D01*
X157866724Y-103229589D01*
X157883278Y-103232882D01*
X157935961Y-103232882D01*
X157952535Y-103229585D01*
X157969257Y-103232009D01*
X158012143Y-103229759D01*
X158028492Y-103225606D01*
X158045289Y-103227149D01*
X158087999Y-103222659D01*
X158104127Y-103217651D01*
X158120999Y-103218313D01*
X158163415Y-103211593D01*
X158179176Y-103205778D01*
X158195975Y-103205561D01*
X158237983Y-103196641D01*
X158253585Y-103189942D01*
X158270531Y-103188829D01*
X158312013Y-103177709D01*
X158327115Y-103170259D01*
X158343832Y-103168281D01*
X158384675Y-103155011D01*
X158399406Y-103146762D01*
X158416048Y-103143902D01*
X158456140Y-103128512D01*
X158470430Y-103119495D01*
X158486912Y-103115765D01*
X158526144Y-103098295D01*
X158539929Y-103088552D01*
X158556174Y-103083969D01*
X158594439Y-103064469D01*
X158607669Y-103054038D01*
X158623618Y-103048625D01*
X158660809Y-103027156D01*
X158673516Y-103016013D01*
X158689212Y-103009751D01*
X158725228Y-102986361D01*
X158737305Y-102974596D01*
X158752616Y-102967538D01*
X158787358Y-102942298D01*
X158798839Y-102929879D01*
X158813807Y-102922003D01*
X158847182Y-102894973D01*
X158857941Y-102882035D01*
X158872406Y-102873431D01*
X158904320Y-102844701D01*
X158914451Y-102831136D01*
X158928528Y-102821729D01*
X158958894Y-102791359D01*
X158968247Y-102777359D01*
X158981736Y-102767288D01*
X159010472Y-102735378D01*
X159019129Y-102720830D01*
X159032143Y-102710004D01*
X159059169Y-102676624D01*
X159067009Y-102661720D01*
X159079377Y-102650288D01*
X159104619Y-102615548D01*
X159111699Y-102600193D01*
X159123495Y-102588082D01*
X159146884Y-102552063D01*
X159153131Y-102536402D01*
X159164248Y-102523726D01*
X159185720Y-102486536D01*
X159188774Y-102477539D01*
X161891517Y-105180283D01*
X161938101Y-105250001D01*
X162214301Y-105434552D01*
X162457865Y-105483000D01*
X162457868Y-105483000D01*
X162540101Y-105499357D01*
X162622334Y-105483000D01*
X164317386Y-105483000D01*
X164334843Y-105570765D01*
X164475191Y-105780809D01*
X164685235Y-105921157D01*
X164933000Y-105970440D01*
X166283000Y-105970440D01*
X166530765Y-105921157D01*
X166740809Y-105780809D01*
X166881157Y-105570765D01*
X166930440Y-105323000D01*
X166930440Y-103973000D01*
X166881157Y-103725235D01*
X166740809Y-103515191D01*
X166530765Y-103374843D01*
X166283000Y-103325560D01*
X164933000Y-103325560D01*
X164685235Y-103374843D01*
X164475191Y-103515191D01*
X164334843Y-103725235D01*
X164317386Y-103813000D01*
X162885970Y-103813000D01*
X159909288Y-100836319D01*
X159936924Y-100697382D01*
X159936924Y-100657000D01*
X164063386Y-100657000D01*
X164080843Y-100744765D01*
X164221191Y-100954809D01*
X164431235Y-101095157D01*
X164679000Y-101144440D01*
X166029000Y-101144440D01*
X166276765Y-101095157D01*
X166486809Y-100954809D01*
X166627157Y-100744765D01*
X166676440Y-100497000D01*
X166676440Y-99147000D01*
X166627157Y-98899235D01*
X166486809Y-98689191D01*
X166276765Y-98548843D01*
X166029000Y-98499560D01*
X164679000Y-98499560D01*
X164431235Y-98548843D01*
X164221191Y-98689191D01*
X164080843Y-98899235D01*
X164063386Y-98987000D01*
X159934859Y-98987000D01*
X159887641Y-98749617D01*
X159747293Y-98539573D01*
X159537249Y-98399225D01*
X159289484Y-98349942D01*
X159222912Y-98349942D01*
X157363000Y-96490031D01*
X157363000Y-95985440D01*
X157528000Y-95985440D01*
X157775765Y-95936157D01*
X157985809Y-95795809D01*
X158126157Y-95585765D01*
X158175440Y-95338000D01*
X158175440Y-94773750D01*
X158893000Y-94773750D01*
X158893000Y-95464310D01*
X158989673Y-95697699D01*
X159168302Y-95876327D01*
X159401691Y-95973000D01*
X160242250Y-95973000D01*
X160401000Y-95814250D01*
X160401000Y-94615000D01*
X160655000Y-94615000D01*
X160655000Y-95814250D01*
X160813750Y-95973000D01*
X161654309Y-95973000D01*
X161887698Y-95876327D01*
X162066327Y-95697699D01*
X162163000Y-95464310D01*
X162163000Y-94773750D01*
X162004250Y-94615000D01*
X160655000Y-94615000D01*
X160401000Y-94615000D01*
X159051750Y-94615000D01*
X158893000Y-94773750D01*
X158175440Y-94773750D01*
X158175440Y-93638000D01*
X158150316Y-93511690D01*
X158893000Y-93511690D01*
X158893000Y-94202250D01*
X159051750Y-94361000D01*
X160401000Y-94361000D01*
X160401000Y-93161750D01*
X160655000Y-93161750D01*
X160655000Y-94361000D01*
X162004250Y-94361000D01*
X162163000Y-94202250D01*
X162163000Y-93511690D01*
X162066327Y-93278301D01*
X161887698Y-93099673D01*
X161654309Y-93003000D01*
X160813750Y-93003000D01*
X160655000Y-93161750D01*
X160401000Y-93161750D01*
X160242250Y-93003000D01*
X159401691Y-93003000D01*
X159168302Y-93099673D01*
X158989673Y-93278301D01*
X158893000Y-93511690D01*
X158150316Y-93511690D01*
X158126157Y-93390235D01*
X157985809Y-93180191D01*
X157775765Y-93039843D01*
X157528000Y-92990560D01*
X157363000Y-92990560D01*
X157363000Y-89415884D01*
X157386765Y-89411157D01*
X157596809Y-89270809D01*
X157737157Y-89060765D01*
X157786440Y-88813000D01*
X157786440Y-87463000D01*
X157737157Y-87215235D01*
X157596809Y-87005191D01*
X157386765Y-86864843D01*
X157139000Y-86815560D01*
X155789000Y-86815560D01*
X155541235Y-86864843D01*
X155331191Y-87005191D01*
X155190843Y-87215235D01*
X155141560Y-87463000D01*
X155141560Y-88813000D01*
X155190843Y-89060765D01*
X155331191Y-89270809D01*
X155541235Y-89411157D01*
X155693001Y-89441345D01*
X155693000Y-92990560D01*
X155528000Y-92990560D01*
X155280235Y-93039843D01*
X155070191Y-93180191D01*
X154929843Y-93390235D01*
X154880560Y-93638000D01*
X154880560Y-95338000D01*
X154910254Y-95487284D01*
X152616689Y-93193720D01*
X152570103Y-93123999D01*
X152293903Y-92939448D01*
X152050339Y-92891000D01*
X152050335Y-92891000D01*
X151968102Y-92874643D01*
X151885869Y-92891000D01*
X149626614Y-92891000D01*
X149609157Y-92803235D01*
X149468809Y-92593191D01*
X149258765Y-92452843D01*
X149011000Y-92403560D01*
X147661000Y-92403560D01*
X147413235Y-92452843D01*
X147203191Y-92593191D01*
X147062843Y-92803235D01*
X147013560Y-93051000D01*
X147013560Y-94401000D01*
X147062843Y-94648765D01*
X147203191Y-94858809D01*
X147413235Y-94999157D01*
X147661000Y-95048440D01*
X149011000Y-95048440D01*
X149258765Y-94999157D01*
X149468809Y-94858809D01*
X149609157Y-94648765D01*
X149626614Y-94561000D01*
X151622235Y-94561000D01*
X155919680Y-98858447D01*
X155892044Y-98997382D01*
X155892044Y-99012382D01*
X146329663Y-99012382D01*
X146307157Y-98899235D01*
X146166809Y-98689191D01*
X145956765Y-98548843D01*
X145709000Y-98499560D01*
X144359000Y-98499560D01*
X144111235Y-98548843D01*
X143901191Y-98689191D01*
X143760843Y-98899235D01*
X143711560Y-99147000D01*
X141661274Y-99147000D01*
X141664194Y-99122332D01*
X142001164Y-97570340D01*
X142485335Y-96057791D01*
X143112248Y-94598611D01*
X143876132Y-93206236D01*
X144769951Y-91893486D01*
X145785478Y-90672448D01*
X146913360Y-89554366D01*
X148143213Y-88549534D01*
X149463713Y-87667204D01*
X150862701Y-86915501D01*
X152327296Y-86301345D01*
X153844013Y-85830392D01*
X155398886Y-85506978D01*
X156977598Y-85334081D01*
X158565614Y-85313292D01*
X160148312Y-85444804D01*
G04 #@! TD*
M02*
