G04 #@! TF.GenerationSoftware,KiCad,Pcbnew,5.0.0-rc2-unknown-2d812c2~65~ubuntu16.04.1*
G04 #@! TF.CreationDate,2018-05-23T18:43:55-05:00*
G04 #@! TF.ProjectId,mems_tdk,6D656D735F74646B2E6B696361645F70,1.0*
G04 #@! TF.SameCoordinates,Original*
G04 #@! TF.FileFunction,Legend,Top*
G04 #@! TF.FilePolarity,Positive*
%FSLAX46Y46*%
G04 Gerber Fmt 4.6, Leading zero omitted, Abs format (unit mm)*
G04 Created by KiCad (PCBNEW 5.0.0-rc2-unknown-2d812c2~65~ubuntu16.04.1) date Wed May 23 18:43:55 2018*
%MOMM*%
%LPD*%
G01*
G04 APERTURE LIST*
%ADD10C,0.120000*%
%ADD11C,0.127000*%
%ADD12C,0.200000*%
%ADD13C,0.150000*%
%ADD14C,0.050000*%
G04 APERTURE END LIST*
D10*
G04 #@! TO.C,C1*
X157782000Y-108716000D02*
X159782000Y-108716000D01*
X159782000Y-106676000D02*
X157782000Y-106676000D01*
G04 #@! TO.C,J1*
X155404000Y-89198000D02*
X157524000Y-89198000D01*
X155404000Y-89138000D02*
X155404000Y-89198000D01*
X157524000Y-89138000D02*
X157524000Y-89198000D01*
X155404000Y-89138000D02*
X157524000Y-89138000D01*
X155404000Y-88138000D02*
X155404000Y-87078000D01*
X155404000Y-87078000D02*
X156464000Y-87078000D01*
G04 #@! TO.C,J2*
X143974000Y-100882000D02*
X146094000Y-100882000D01*
X143974000Y-100822000D02*
X143974000Y-100882000D01*
X146094000Y-100822000D02*
X146094000Y-100882000D01*
X143974000Y-100822000D02*
X146094000Y-100822000D01*
X143974000Y-99822000D02*
X143974000Y-98762000D01*
X143974000Y-98762000D02*
X145034000Y-98762000D01*
G04 #@! TO.C,J3*
X147276000Y-92666000D02*
X148336000Y-92666000D01*
X147276000Y-93726000D02*
X147276000Y-92666000D01*
X147276000Y-94726000D02*
X149396000Y-94726000D01*
X149396000Y-94726000D02*
X149396000Y-94786000D01*
X147276000Y-94726000D02*
X147276000Y-94786000D01*
X147276000Y-94786000D02*
X149396000Y-94786000D01*
G04 #@! TO.C,J4*
X164294000Y-98762000D02*
X165354000Y-98762000D01*
X164294000Y-99822000D02*
X164294000Y-98762000D01*
X164294000Y-100822000D02*
X166414000Y-100822000D01*
X166414000Y-100822000D02*
X166414000Y-100882000D01*
X164294000Y-100822000D02*
X164294000Y-100882000D01*
X164294000Y-100882000D02*
X166414000Y-100882000D01*
G04 #@! TO.C,J5*
X164548000Y-103588000D02*
X165608000Y-103588000D01*
X164548000Y-104648000D02*
X164548000Y-103588000D01*
X164548000Y-105648000D02*
X166668000Y-105648000D01*
X166668000Y-105648000D02*
X166668000Y-105708000D01*
X164548000Y-105648000D02*
X164548000Y-105708000D01*
X164548000Y-105708000D02*
X166668000Y-105708000D01*
G04 #@! TO.C,J6*
X146260000Y-109264000D02*
X148380000Y-109264000D01*
X146260000Y-109204000D02*
X146260000Y-109264000D01*
X148380000Y-109204000D02*
X148380000Y-109264000D01*
X146260000Y-109204000D02*
X148380000Y-109204000D01*
X146260000Y-108204000D02*
X146260000Y-107144000D01*
X146260000Y-107144000D02*
X147320000Y-107144000D01*
G04 #@! TO.C,J7*
X156928000Y-113494000D02*
X157988000Y-113494000D01*
X156928000Y-114554000D02*
X156928000Y-113494000D01*
X156928000Y-115554000D02*
X159048000Y-115554000D01*
X159048000Y-115554000D02*
X159048000Y-115614000D01*
X156928000Y-115554000D02*
X156928000Y-115614000D01*
X156928000Y-115614000D02*
X159048000Y-115614000D01*
D11*
G04 #@! TO.C,MK1*
X159414484Y-98872382D02*
X159414484Y-102872382D01*
X159414484Y-102872382D02*
X156414484Y-102872382D01*
X156414484Y-102872382D02*
X156414484Y-98872382D01*
X156414484Y-98872382D02*
X159414484Y-98872382D01*
D12*
X156114484Y-99247382D02*
G75*
G03X156114484Y-99247382I-100000J0D01*
G01*
D10*
G04 #@! TO.C,R1*
X157528000Y-93418000D02*
X159528000Y-93418000D01*
X159528000Y-95558000D02*
X157528000Y-95558000D01*
G04 #@! TO.C,C1*
D13*
X158615333Y-106303142D02*
X158567714Y-106350761D01*
X158424857Y-106398380D01*
X158329619Y-106398380D01*
X158186761Y-106350761D01*
X158091523Y-106255523D01*
X158043904Y-106160285D01*
X157996285Y-105969809D01*
X157996285Y-105826952D01*
X158043904Y-105636476D01*
X158091523Y-105541238D01*
X158186761Y-105446000D01*
X158329619Y-105398380D01*
X158424857Y-105398380D01*
X158567714Y-105446000D01*
X158615333Y-105493619D01*
X159567714Y-106398380D02*
X158996285Y-106398380D01*
X159282000Y-106398380D02*
X159282000Y-105398380D01*
X159186761Y-105541238D01*
X159091523Y-105636476D01*
X158996285Y-105684095D01*
G04 #@! TO.C,J1*
X156130666Y-85530380D02*
X156130666Y-86244666D01*
X156083047Y-86387523D01*
X155987809Y-86482761D01*
X155844952Y-86530380D01*
X155749714Y-86530380D01*
X157130666Y-86530380D02*
X156559238Y-86530380D01*
X156844952Y-86530380D02*
X156844952Y-85530380D01*
X156749714Y-85673238D01*
X156654476Y-85768476D01*
X156559238Y-85816095D01*
G04 #@! TO.C,J2*
X144700666Y-97214380D02*
X144700666Y-97928666D01*
X144653047Y-98071523D01*
X144557809Y-98166761D01*
X144414952Y-98214380D01*
X144319714Y-98214380D01*
X145129238Y-97309619D02*
X145176857Y-97262000D01*
X145272095Y-97214380D01*
X145510190Y-97214380D01*
X145605428Y-97262000D01*
X145653047Y-97309619D01*
X145700666Y-97404857D01*
X145700666Y-97500095D01*
X145653047Y-97642952D01*
X145081619Y-98214380D01*
X145700666Y-98214380D01*
G04 #@! TO.C,J3*
X148002666Y-91118380D02*
X148002666Y-91832666D01*
X147955047Y-91975523D01*
X147859809Y-92070761D01*
X147716952Y-92118380D01*
X147621714Y-92118380D01*
X148383619Y-91118380D02*
X149002666Y-91118380D01*
X148669333Y-91499333D01*
X148812190Y-91499333D01*
X148907428Y-91546952D01*
X148955047Y-91594571D01*
X149002666Y-91689809D01*
X149002666Y-91927904D01*
X148955047Y-92023142D01*
X148907428Y-92070761D01*
X148812190Y-92118380D01*
X148526476Y-92118380D01*
X148431238Y-92070761D01*
X148383619Y-92023142D01*
G04 #@! TO.C,J4*
X165020666Y-97214380D02*
X165020666Y-97928666D01*
X164973047Y-98071523D01*
X164877809Y-98166761D01*
X164734952Y-98214380D01*
X164639714Y-98214380D01*
X165925428Y-97547714D02*
X165925428Y-98214380D01*
X165687333Y-97166761D02*
X165449238Y-97881047D01*
X166068285Y-97881047D01*
G04 #@! TO.C,J5*
X165274666Y-102040380D02*
X165274666Y-102754666D01*
X165227047Y-102897523D01*
X165131809Y-102992761D01*
X164988952Y-103040380D01*
X164893714Y-103040380D01*
X166227047Y-102040380D02*
X165750857Y-102040380D01*
X165703238Y-102516571D01*
X165750857Y-102468952D01*
X165846095Y-102421333D01*
X166084190Y-102421333D01*
X166179428Y-102468952D01*
X166227047Y-102516571D01*
X166274666Y-102611809D01*
X166274666Y-102849904D01*
X166227047Y-102945142D01*
X166179428Y-102992761D01*
X166084190Y-103040380D01*
X165846095Y-103040380D01*
X165750857Y-102992761D01*
X165703238Y-102945142D01*
G04 #@! TO.C,J6*
X146986666Y-105596380D02*
X146986666Y-106310666D01*
X146939047Y-106453523D01*
X146843809Y-106548761D01*
X146700952Y-106596380D01*
X146605714Y-106596380D01*
X147891428Y-105596380D02*
X147700952Y-105596380D01*
X147605714Y-105644000D01*
X147558095Y-105691619D01*
X147462857Y-105834476D01*
X147415238Y-106024952D01*
X147415238Y-106405904D01*
X147462857Y-106501142D01*
X147510476Y-106548761D01*
X147605714Y-106596380D01*
X147796190Y-106596380D01*
X147891428Y-106548761D01*
X147939047Y-106501142D01*
X147986666Y-106405904D01*
X147986666Y-106167809D01*
X147939047Y-106072571D01*
X147891428Y-106024952D01*
X147796190Y-105977333D01*
X147605714Y-105977333D01*
X147510476Y-106024952D01*
X147462857Y-106072571D01*
X147415238Y-106167809D01*
G04 #@! TO.C,J7*
X157654666Y-111946380D02*
X157654666Y-112660666D01*
X157607047Y-112803523D01*
X157511809Y-112898761D01*
X157368952Y-112946380D01*
X157273714Y-112946380D01*
X158035619Y-111946380D02*
X158702285Y-111946380D01*
X158273714Y-112946380D01*
G04 #@! TO.C,MK1*
D14*
X156947034Y-98322685D02*
X156947034Y-97679391D01*
X157161465Y-98138887D01*
X157375896Y-97679391D01*
X157375896Y-98322685D01*
X157682227Y-98322685D02*
X157682227Y-97679391D01*
X158049823Y-98322685D02*
X157774126Y-97955089D01*
X158049823Y-97679391D02*
X157682227Y-98046988D01*
X158662484Y-98322685D02*
X158294888Y-98322685D01*
X158478686Y-98322685D02*
X158478686Y-97679391D01*
X158417420Y-97771291D01*
X158356154Y-97832557D01*
X158294888Y-97863190D01*
G04 #@! TO.C,R1*
D13*
X158361333Y-93090380D02*
X158028000Y-92614190D01*
X157789904Y-93090380D02*
X157789904Y-92090380D01*
X158170857Y-92090380D01*
X158266095Y-92138000D01*
X158313714Y-92185619D01*
X158361333Y-92280857D01*
X158361333Y-92423714D01*
X158313714Y-92518952D01*
X158266095Y-92566571D01*
X158170857Y-92614190D01*
X157789904Y-92614190D01*
X159313714Y-93090380D02*
X158742285Y-93090380D01*
X159028000Y-93090380D02*
X159028000Y-92090380D01*
X158932761Y-92233238D01*
X158837523Y-92328476D01*
X158742285Y-92376095D01*
G04 #@! TD*
M02*
